<svg height="512" viewBox="0 0 128 128" width="512" xmlns="http://www.w3.org/2000/svg"><g><g><path d="m33.498 1.747h77.002v124.5h-77.002z" fill="#fff5f5"/><path d="m43.498 37.727h57.002v34.898h-57.002z" fill="#efe2dd"/><path d="m17.5 6.747v114.5a5 5 0 0 0 5 5h11v-124.5h-11a5 5 0 0 0 -5 5z" fill="#596c76"/><path d="m84.921 29.469h-10.265a1.751 1.751 0 0 1 -1.75-1.75v-15.972a1.75 1.75 0 0 1 1.75-1.747h10.265a1.75 1.75 0 0 1 0 3.5h-8.515v12.469h6.765v-4.487h-2.381a1.75 1.75 0 0 1 0-3.5h4.131a1.751 1.751 0 0 1 1.75 1.75v7.987a1.751 1.751 0 0 1 -1.75 1.75z" fill="#ff9100"/><path d="m53.763 29.469a1.751 1.751 0 0 1 -1.75-1.75v-10.012l-1.913 2.972a1.751 1.751 0 0 1 -2.944 0l-1.911-2.972v10.012a1.75 1.75 0 0 1 -3.5 0v-15.972a1.75 1.75 0 0 1 3.223-.946l3.66 5.695 3.66-5.695a1.75 1.75 0 0 1 3.222.946v15.972a1.751 1.751 0 0 1 -1.747 1.75z" fill="#ff9100"/><path d="m69.342 29.469a1.75 1.75 0 0 1 -1.666-1.215l-3.466-10.786-3.466 10.786a1.75 1.75 0 1 1 -3.332-1.07l5.132-15.972a1.75 1.75 0 0 1 3.332 0l5.132 15.972a1.75 1.75 0 0 1 -1.666 2.285z" fill="#ff9100"/><path d="m100.5 29.469h-10.265a1.75 1.75 0 0 1 -1.472-2.7l8.537-13.269h-7.06a1.75 1.75 0 0 1 0-3.5h10.26a1.75 1.75 0 0 1 1.472 2.7l-8.532 13.269h7.06a1.75 1.75 0 0 1 0 3.5z" fill="#ff9100"/><path d="m43.498 64.625 17.002-11.625 40 15.875v3.75h-57.002z" fill="#b9dd39"/><path d="m88.187 49.844a4.719 4.719 0 1 1 -4.718-4.719 4.718 4.718 0 0 1 4.718 4.719z" fill="#ff9100"/><g fill="#596c76"><path d="m100.5 84.383h-57a1.75 1.75 0 0 1 0-3.5h57a1.75 1.75 0 0 1 0 3.5z"/><path d="m90.235 92.786h-36.472a1.75 1.75 0 0 1 0-3.5h36.472a1.75 1.75 0 1 1 0 3.5z"/><path d="m100.5 101.19h-57a1.75 1.75 0 1 1 0-3.5h57a1.75 1.75 0 0 1 0 3.5z"/><path d="m90.235 109.594h-36.472a1.75 1.75 0 0 1 0-3.5h36.472a1.75 1.75 0 1 1 0 3.5z"/><path d="m100.5 118h-57a1.75 1.75 0 0 1 0-3.5h57a1.75 1.75 0 0 1 0 3.5z"/></g></g><g><path d="m110.5 0h-85.688a1.75 1.75 0 0 0 0 3.5h6.936v121h-9.248a3.254 3.254 0 0 1 -3.25-3.25v-111.508a1.75 1.75 0 1 0 -3.5 0v111.505a6.758 6.758 0 0 0 6.75 6.753h88a1.75 1.75 0 0 0 1.75-1.75v-12.5a1.75 1.75 0 0 0 -3.5 0v10.75h-73.5v-121h73.5v74.188a1.75 1.75 0 0 0 3.5 0v-75.941a1.75 1.75 0 0 0 -1.75-1.747z"/><path d="m110.5 90.5a1.75 1.75 0 0 0 -1.75 1.75v6.936a1.75 1.75 0 0 0 3.5 0v-6.936a1.75 1.75 0 0 0 -1.75-1.75z"/><path d="m84.921 13.5a1.75 1.75 0 0 0 0-3.5h-10.265a1.75 1.75 0 0 0 -1.75 1.75v15.969a1.751 1.751 0 0 0 1.75 1.75h10.265a1.751 1.751 0 0 0 1.75-1.75v-7.987a1.751 1.751 0 0 0 -1.75-1.75h-4.131a1.75 1.75 0 0 0 0 3.5h2.381v4.487h-6.765v-12.469z"/><path d="m53.763 29.469a1.751 1.751 0 0 0 1.75-1.75v-15.972a1.75 1.75 0 0 0 -3.222-.946l-3.66 5.699-3.66-5.7a1.75 1.75 0 0 0 -3.223.946v15.973a1.75 1.75 0 0 0 3.5 0v-10.012l1.911 2.972a1.751 1.751 0 0 0 2.944 0l1.91-2.972v10.012a1.751 1.751 0 0 0 1.75 1.75z"/><path d="m60.744 28.254 3.466-10.786 3.466 10.786a1.75 1.75 0 0 0 3.332-1.07l-5.132-15.972a1.75 1.75 0 0 0 -3.332 0l-5.132 15.972a1.75 1.75 0 1 0 3.332 1.07z"/><path d="m100.5 25.969h-7.06l8.532-13.276a1.75 1.75 0 0 0 -1.472-2.693h-10.265a1.75 1.75 0 0 0 0 3.5h7.065l-8.537 13.272a1.75 1.75 0 0 0 1.472 2.7h10.265a1.75 1.75 0 0 0 0-3.5z"/><path d="m102.25 68.875v-31.148a1.75 1.75 0 0 0 -1.75-1.75h-57a1.75 1.75 0 0 0 -1.75 1.75v34.9a1.75 1.75 0 0 0 1.75 1.75h57a1.75 1.75 0 0 0 1.75-1.75zm-3.5-29.4v26.825l-37.6-14.924a1.753 1.753 0 0 0 -1.633.183l-14.269 9.75v-21.832zm0 31.4h-53.5v-5.326l15.47-10.579 38.03 15.094z"/><path d="m83.469 56.313a6.469 6.469 0 1 0 -6.469-6.469 6.476 6.476 0 0 0 6.469 6.469zm0-9.438a2.969 2.969 0 1 1 -2.969 2.969 2.972 2.972 0 0 1 2.969-2.969z"/><path d="m100.5 80.883h-57a1.75 1.75 0 0 0 0 3.5h57a1.75 1.75 0 0 0 0-3.5z"/><path d="m90.235 92.786a1.75 1.75 0 1 0 0-3.5h-36.472a1.75 1.75 0 0 0 0 3.5z"/><path d="m100.5 97.69h-57a1.75 1.75 0 1 0 0 3.5h57a1.75 1.75 0 0 0 0-3.5z"/><path d="m90.235 109.594a1.75 1.75 0 1 0 0-3.5h-36.472a1.75 1.75 0 0 0 0 3.5z"/><path d="m41.748 116.247a1.75 1.75 0 0 0 1.752 1.753h57a1.75 1.75 0 0 0 0-3.5h-57a1.75 1.75 0 0 0 -1.752 1.747z"/></g></g></svg>