<svg id="_x33_0" enable-background="new 0 0 64 64" height="512" viewBox="0 0 64 64" width="512" xmlns="http://www.w3.org/2000/svg"><g><g><g><path d="m26.31 6c-.21 0-.41.04-.6.11l-7.71 2.89 7 7 2.89-7.71c.07-.19.11-.39.11-.6 0-.93-.76-1.69-1.69-1.69z" fill="#aab2bd"/></g><g><path d="m21.5 12.5-5.5 5.5h-7l3-3 6-6z" fill="#fcd770"/></g><g><path d="m25 16-2 2h-7l5.5-5.5z" fill="#ff826e"/></g><g><path d="m12 3v12l-3 3h-5v-4-4-4-3c0-.55.45-1 1-1h6c.55 0 1 .45 1 1z" fill="#e6e9ed"/></g><g><path d="m22 22v4h-3c-.55 0-1 .45-1 1v1h-3c-.55 0-1 .45-1 1v1h-3c-.55 0-1 .45-1 1v13h-2c-2.21 0-4-1.79-4-4v-18z" fill="#dfb28b"/></g><g><path d="m24 19v2c0 .55-.45 1-1 1h-1-18-1c-.55 0-1-.45-1-1v-2c0-.55.45-1 1-1h1 5 7 7c.55 0 1 .45 1 1z" fill="#cf9e76"/></g><g><path d="m53 34-.86 5.16c-.08.49-.5.84-.99.84h-1.15-1.15c-.49 0-.91-.35-.99-.84l-.86-5.16z" fill="#aab2bd"/></g><g><path d="m62 31v28c0 .55-.45 1-1 1h-20l-.11.21c-.54 1.1-1.66 1.79-2.89 1.79s-2.35-.69-2.89-1.79l-.11-.21h-24c-.55 0-1-.45-1-1v-15-13c0-.55.45-1 1-1h3v25c0 .55.45 1 1 1h23 19c.55 0 1-.45 1-1v-25h3c.55 0 1 .45 1 1z" fill="#b4dd7f"/></g><g><path d="m38 54v2h-23c-.55 0-1-.45-1-1v-25-1c0-.55.45-1 1-1h3v24h15.51c1.6 0 3.12.63 4.25 1.76z" fill="#f0d0b4"/></g><g><path d="m57 28h-19l-.24-.24c-1.13-1.13-2.65-1.76-4.25-1.76h-11.51-3c-.55 0-1 .45-1 1v1 24h15.51c1.6 0 3.12.63 4.25 1.76l.24.24v2h19c.55 0 1-.45 1-1v-25-1c0-.55-.45-1-1-1z" fill="#e6e9ed"/></g><g><path d="m22 30h12v6h-12z" fill="#ff826e"/></g><g><path d="m52 2h-4c-1.1 0-2 .9-2 2v29c0 .55.45 1 1 1h6c.55 0 1-.45 1-1v-29c0-1.1-.9-2-2-2z" fill="#fcd770"/></g></g><g><path d="m61 29h-2c0-1.103-.897-2-2-2h-2v-8.382l1.447.724c.341.17.553.513.553.894v2.764h2v-2.764c0-1.143-.635-2.171-1.658-2.683l-1.106-.553 1.105-.553c1.024-.511 1.659-1.54 1.659-2.683v-4.202c0-1.379-.935-2.576-2.272-2.911l-1.728-.432v-2.219c0-1.654-1.346-3-3-3h-4c-1.654 0-3 1.346-3 3v23h-6.586c-1.316-1.29-3.053-2-4.899-2h-10.515v-2c1.103 0 2-.897 2-2v-2c0-.446-.152-.854-.399-1.187l1.259-1.259 2.968-7.916c.114-.304.172-.621.172-.945 0-1.485-1.208-2.693-2.693-2.693-.324 0-.642.058-.946.171l-7.915 2.969-4.446 4.446v-9.586c0-1.103-.897-2-2-2h-6c-1.103 0-2 .897-2 2v14c-1.103 0-2 .897-2 2v2c0 1.103.897 2 2 2v17c0 2.757 2.243 5 5 5h1v14c0 1.103.897 2 2 2h23.402c.769 1.243 2.115 2 3.598 2s2.829-.757 3.598-2h19.402c1.103 0 2-.897 2-2v-28c0-1.103-.897-2-2-2zm-12.153 10-.667-4h3.639l-.667 4zm4.154-6h-6.001v-18h6.001zm3.241-24.409c.446.112.758.511.758.971v4.203c0 .381-.212.724-.553.894l-1.447.723v-7.101zm-8.242-5.591h4c.551 0 1 .449 1 1v9h-6v-9c0-.551.449-1 1-1zm-1.883 31.786.757 4.543c.161.968.991 1.671 1.973 1.671h.153v4h2v-4h.153c.982 0 1.812-.703 1.973-1.672l.757-4.543c.659-.327 1.117-1.001 1.117-1.785v-4h2v26h-18v-26h6v4c0 .784.458 1.458 1.117 1.786zm-12.602 18.214c1.314 0 2.547.508 3.485 1.424v.576h-22v-26h2v24zm3.485-24.577v23.511c-1.049-.605-2.241-.934-3.485-.934h-14.515v-24h14.515c1.313 0 2.546.508 3.485 1.423zm-17.195-19.032 3.034-1.138 2.907 2.907-1.138 3.034zm.281 3.109-4.5 4.5h-4.172l6.586-6.586zm1.414 1.414 2.086 2.086-1 1h-4.172zm4.563-6.87c.44-.164.937.184.937.649 0 .083-.015.166-.044.244l-.438 1.167-1.622-1.622zm-21.063 7.956h4v-2h-4v-2h2v-2h-2v-2h4v-2h-4v-2h6v11.586l-2.414 2.414h-3.586zm-2 4h20l.001 2h-20.001zm6 12v12h-1c-1.654 0-3-1.346-3-3v-17h16v2h-2c-1.103 0-2 .897-2 2h-2c-1.103 0-2 .897-2 2h-2c-1.103 0-2 .897-2 2zm52 28h-20.618l-.382.764c-.381.762-1.147 1.236-2 1.236s-1.619-.474-2-1.236l-.382-.764h-24.618v-28h2v24c0 1.103.897 2 2 2h42c1.103 0 2-.897 2-2v-24h2z"/><path d="m35 29h-14v8h14zm-2 6h-10v-4h10z"/><path d="m21 39h4v2h-4z"/><path d="m27 39h8v2h-8z"/><path d="m21 43h14v2h-14z"/><path d="m21 47h14v2h-14z"/><path d="m41 47h14v2h-14z"/><path d="m41 51h14v2h-14z"/><path d="m41 43h6v2h-6z"/><path d="m41 39h4v2h-4z"/></g></g></svg>